<svg width="49" height="23" viewBox="0 0 49 23" fill="none" xmlns="http://www.w3.org/2000/svg">
<path d="M12.57 22.48C10.35 22.48 8.35 22.02 6.57 21.1C4.79 20.16 3.39 18.86 2.37 17.2C1.37 15.52 0.87 13.62 0.87 11.5C0.87 9.38 1.37 7.49 2.37 5.83C3.39 4.15 4.79 2.85 6.57 1.93C8.35 0.989999 10.35 0.519999 12.57 0.519999C14.61 0.519999 16.43 0.88 18.03 1.6C19.63 2.32 20.95 3.36 21.99 4.72L17.52 8.71C16.22 7.07 14.69 6.25 12.93 6.25C11.45 6.25 10.26 6.73 9.36 7.69C8.46 8.63 8.01 9.9 8.01 11.5C8.01 13.1 8.46 14.38 9.36 15.34C10.26 16.28 11.45 16.75 12.93 16.75C14.69 16.75 16.22 15.93 17.52 14.29L21.99 18.28C20.95 19.64 19.63 20.68 18.03 21.4C16.43 22.12 14.61 22.48 12.57 22.48ZM36.8548 22.48C34.5948 22.48 32.5648 22.01 30.7648 21.07C28.9648 20.13 27.5548 18.83 26.5348 17.17C25.5148 15.49 25.0048 13.6 25.0048 11.5C25.0048 9.4 25.5148 7.52 26.5348 5.86C27.5548 4.18 28.9648 2.87 30.7648 1.93C32.5648 0.989999 34.5948 0.519999 36.8548 0.519999C39.1148 0.519999 41.1448 0.989999 42.9448 1.93C44.7448 2.87 46.1548 4.18 47.1748 5.86C48.1948 7.52 48.7048 9.4 48.7048 11.5C48.7048 13.6 48.1948 15.49 47.1748 17.17C46.1548 18.83 44.7448 20.13 42.9448 21.07C41.1448 22.01 39.1148 22.48 36.8548 22.48ZM36.8548 16.75C37.7348 16.75 38.5248 16.54 39.2248 16.12C39.9448 15.68 40.5148 15.07 40.9348 14.29C41.3548 13.49 41.5648 12.56 41.5648 11.5C41.5648 10.44 41.3548 9.52 40.9348 8.74C40.5148 7.94 39.9448 7.33 39.2248 6.91C38.5248 6.47 37.7348 6.25 36.8548 6.25C35.9748 6.25 35.1748 6.47 34.4548 6.91C33.7548 7.33 33.1948 7.94 32.7748 8.74C32.3548 9.52 32.1448 10.44 32.1448 11.5C32.1448 12.56 32.3548 13.49 32.7748 14.29C33.1948 15.07 33.7548 15.68 34.4548 16.12C35.1748 16.54 35.9748 16.75 36.8548 16.75Z" fill="black"/>
</svg>
